<mxfile host="Electron" modified="2024-01-04T09:33:16.342Z" agent="Mozilla/5.0 (Macintosh; Intel Mac OS X 10_15_7) AppleWebKit/537.36 (KHTML, like Gecko) draw.io/22.1.15 Chrome/120.0.6099.109 Electron/28.1.0 Safari/537.36" etag="6oIUyauDssWXT5cz5OSk" version="22.1.15" type="device">
  <diagram name="หน้า-1" id="zQfQ-L4t5dueDFqtWc-j">
    <mxGraphModel dx="1272" dy="899" grid="1" gridSize="10" guides="1" tooltips="1" connect="1" arrows="1" fold="1" page="1" pageScale="1" pageWidth="827" pageHeight="1169" math="0" shadow="0">
      <root>
        <mxCell id="0" />
        <mxCell id="1" parent="0" />
        <mxCell id="l2Xmlrt4_wKqlZV3ljpw-1" value="" style="shape=image;verticalLabelPosition=bottom;labelBackgroundColor=default;verticalAlign=top;aspect=fixed;imageAspect=0;image=data:image/png,iVBORw0KGgoAAAANSUhEUgAAAm4AAAC0CAYAAAAtkqBzAAAMP2lDQ1BJQ0MgUHJvZmlsZQAASImVVwdYU8kWnluSkJDQAghICb0JIjWAlBBaAOndRkgChBJjIKjYkUUF14KKBWzoqohip9kRO4ti74sFFWVdLNiVNymg677yvfm+ufPff87858y5M/feAUD9OFcszkU1AMgTFUhiQwIYySmpDNJTQAU0oAmcgBuXly9mRUdHAFgG27+Xd9cBImuvOMi0/tn/X4smX5DPAwCJhjidn8/Lg/gAAHg1TywpAIAo482nFIhlGFagLYEBQrxAhjMVuFqG0xV4j9wmPpYNcRsAKlQuV5IJgNolyDMKeZlQQ60PYicRXygCQJ0BsW9e3iQ+xGkQ20AbMcQyfWb6DzqZf9NMH9LkcjOHsGIu8qISKMwX53Kn/Z/p+N8lL1c66MMKVmqWJDRWNmeYt5s5k8JlmApxryg9MgpiLYg/CPlye4hRSpY0NEFhjxry8tkwZ0AXYic+NzAcYkOIg0W5kRFKPj1DGMyBGK4QdKqwgBMPsR7ECwT5QXFKm42SSbFKX2hDhoTNUvJnuRK5X5mv+9KcBJZS/3WWgKPUx9SKsuKTIKZAbFEoTIyEWA1ix/ycuHClzeiiLHbkoI1EGiuL3wLiWIEoJEChjxVmSIJjlfZlefmD88U2Zgk5kUq8ryArPlSRH6yNx5XHD+eCXRKIWAmDOoL85IjBufAFgUGKuWPPBKKEOKXOB3FBQKxiLE4R50Yr7XEzQW6IjDeD2DW/ME45Fk8sgAtSoY9niAui4xVx4kXZ3LBoRTz4UhAB2CAQMIAU1nQwCWQDYUdvYy+8U/QEAy6QgEwgAA5KZnBEkrxHBK9xoAj8CZEA5A+NC5D3CkAh5L8OsYqrA8iQ9xbKR+SAJxDngXCQC++l8lGiIW+J4DFkhP/wzoWVB+PNhVXW/+/5QfY7w4JMhJKRDnpkqA9aEoOIgcRQYjDRFjfAfXFvPAJe/WF1xpm45+A8vtsTnhA6CQ8J1whdhFsThcWSn6IcA7qgfrAyF+k/5gK3gppueADuA9WhMq6LGwAH3BX6YeF+0LMbZNnKuGVZYfyk/bcZ/PA0lHZkJzJKHkb2J9v8PFLNTs1tSEWW6x/zo4g1fSjf7KGen/2zf8g+H7bhP1tiC7D92BnsBHYOO4w1AgZ2DGvC2rEjMjy0uh7LV9egt1h5PDlQR/gPf4NPVpbJfKc6px6nL4q+AsFU2TsasCeJp0mEmVkFDBb8IggYHBHPcQTD2cnZBQDZ90Xx+noTI/9uILrt37l5fwDgc2xgYODQdy7sGAB7PeD2b/7O2TDhp0MVgLPNPKmkUMHhsgsBviXU4U7TB8bAHNjA+TgDd+AN/EEQCANRIB6kgAkw+iy4ziVgCpgB5oJSUA6WgpVgLdgANoPtYBfYBxrBYXACnAYXwCVwDdyBq6cbvAB94B34jCAICaEhdEQfMUEsEXvEGWEivkgQEoHEIilIGpKJiBApMgOZh5QjFchaZBNSi+xFmpETyDmkE7mFPEB6kNfIJxRDqag2aoRaoSNRJspCw9F4dDyaiU5Gi9ASdDG6Gq1Bd6IN6An0AnoN7UJfoP0YwFQxXcwUc8CYGBuLwlKxDEyCzcLKsEqsBqvHWuBzvoJ1Yb3YR5yI03EG7gBXcCiegPPwyfgsfBG+Ft+ON+Bt+BX8Ad6HfyPQCIYEe4IXgUNIJmQSphBKCZWErYSDhFNwL3UT3hGJRF2iNdED7sUUYjZxOnERcR1xN/E4sZP4iNhPIpH0SfYkH1IUiUsqIJWS1pB2ko6RLpO6SR9UVFVMVJxVglVSVUQqxSqVKjtUjqpcVnmq8pmsQbYke5GjyHzyNPIS8hZyC/kiuZv8maJJsab4UOIp2ZS5lNWUesopyl3KG1VVVTNVT9UYVaHqHNXVqntUz6o+UP1I1aLaUdnUcVQpdTF1G/U49Rb1DY1Gs6L501JpBbTFtFraSdp92gc1upqjGkeNrzZbrUqtQe2y2kt1srqlOkt9gnqReqX6fvWL6r0aZA0rDbYGV2OWRpVGs8YNjX5NuuYozSjNPM1Fmjs0z2k+0yJpWWkFafG1SrQ2a53UekTH6OZ0Np1Hn0ffQj9F79Ymaltrc7Sztcu1d2l3aPfpaOm46iTqTNWp0jmi06WL6VrpcnRzdZfo7tO9rvtpmNEw1jDBsIXD6oddHvZeb7iev55Ar0xvt941vU/6DP0g/Rz9ZfqN+vcMcAM7gxiDKQbrDU4Z9A7XHu49nDe8bPi+4bcNUUM7w1jD6YabDdsN+42MjUKMxEZrjE4a9RrrGvsbZxuvMD5q3GNCN/E1EZqsMDlm8pyhw2AxchmrGW2MPlND01BTqekm0w7Tz2bWZglmxWa7ze6ZU8yZ5hnmK8xbzfssTCzGWMywqLO4bUm2ZFpmWa6yPGP53sraKslqvlWj1TNrPWuOdZF1nfVdG5qNn81kmxqbq7ZEW6Ztju0620t2qJ2bXZZdld1Fe9Te3V5ov86+cwRhhOcI0YiaETccqA4sh0KHOocHjrqOEY7Fjo2OL0dajEwduWzkmZHfnNyccp22ON0ZpTUqbFTxqJZRr53tnHnOVc5XXWguwS6zXZpcXrnauwpc17vedKO7jXGb79bq9tXdw13iXu/e42HhkeZR7XGDqc2MZi5invUkeAZ4zvY87PnRy92rwGuf11/eDt453ju8n422Hi0YvWX0Ix8zH67PJp8uX4Zvmu9G3y4/Uz+uX43fQ39zf77/Vv+nLFtWNmsn62WAU4Ak4GDAe7YXeyb7eCAWGBJYFtgRpBWUELQ26H6wWXBmcF1wX4hbyPSQ46GE0PDQZaE3OEYcHqeW0xfmETYzrC2cGh4Xvjb8YYRdhCSiZQw6JmzM8jF3Iy0jRZGNUSCKE7U86l60dfTk6EMxxJjomKqYJ7GjYmfEnomjx02M2xH3Lj4gfkn8nQSbBGlCa6J64rjE2sT3SYFJFUldySOTZyZfSDFIEaY0pZJSE1O3pvaPDRq7cmz3OLdxpeOuj7ceP3X8uQkGE3InHJmoPpE7cX8aIS0pbUfaF24Ut4bbn85Jr07v47F5q3gv+P78FfwegY+gQvA0wyejIuNZpk/m8syeLL+syqxeIVu4VvgqOzR7Q/b7nKicbTkDuUm5u/NU8tLymkVaohxR2yTjSVMndYrtxaXirslek1dO7pOES7bmI/nj85sKtOGPfLvURvqL9EGhb2FV4YcpiVP2T9WcKpraPs1u2sJpT4uCi36bjk/nTW+dYTpj7owHM1kzN81CZqXPap1tPrtkdveckDnb51Lm5sz9vdipuKL47bykeS0lRiVzSh79EvJLXalaqaT0xnzv+RsW4AuECzoWuixcs/BbGb/sfLlTeWX5l0W8Red/HfXr6l8HFmcs7ljivmT9UuJS0dLry/yWba/QrCiqeLR8zPKGFYwVZSverpy48lyla+WGVZRV0lVdqyNWN62xWLN0zZe1WWuvVQVU7a42rF5Y/X4df93l9f7r6zcYbSjf8GmjcOPNTSGbGmqsaio3EzcXbn6yJXHLmd+Yv9VuNdhavvXrNtG2ru2x29tqPWprdxjuWFKH1knrenaO23lpV+CupnqH+k27dXeX7wF7pHue703be31f+L7W/cz99QcsD1QfpB8sa0AapjX0NWY1djWlNHU2hzW3tni3HDzkeGjbYdPDVUd0jiw5SjlacnTgWNGx/uPi470nMk88ap3Yeudk8smrbTFtHafCT509HXz65BnWmWNnfc4ePud1rvk883zjBfcLDe1u7Qd/d/v9YId7R8NFj4tNlzwvtXSO7jx62e/yiSuBV05f5Vy9cC3yWuf1hOs3b4y70XWTf/PZrdxbr24X3v58Z85dwt2yexr3Ku8b3q/5w/aP3V3uXUceBD5ofxj38M4j3qMXj/Mff+kueUJ7UvnU5GntM+dnh3uCey49H/u8+4X4xefe0j81/6x+afPywF/+f7X3Jfd1v5K8Gni96I3+m21vXd+29kf333+X9+7z+7IP+h+2f2R+PPMp6dPTz1O+kL6s/mr7teVb+Le7A3kDA2KuhCv/FcBgRTMyAHi9DQBaCgB0eD6jjFWc/+QFUZxZ5Qj8J6w4I8qLOwD18P89phf+3dwAYM8WePyC+urjAIimARDvCVAXl6E6eFaTnytlhQjPARtDvqbnpYN/UxRnzh/i/rkFMlVX8HP7LythfJBNGo0nAAAAlmVYSWZNTQAqAAAACAAFARIAAwAAAAEAAQAAARoABQAAAAEAAABKARsABQAAAAEAAABSASgAAwAAAAEAAgAAh2kABAAAAAEAAABaAAAAAAAAAJAAAAABAAAAkAAAAAEAA5KGAAcAAAASAAAAhKACAAQAAAABAAACbqADAAQAAAABAAAAtAAAAABBU0NJSQAAAFNjcmVlbnNob3TvaPIzAAAACXBIWXMAABYlAAAWJQFJUiTwAAAC22lUWHRYTUw6Y29tLmFkb2JlLnhtcAAAAAAAPHg6eG1wbWV0YSB4bWxuczp4PSJhZG9iZTpuczptZXRhLyIgeDp4bXB0az0iWE1QIENvcmUgNi4wLjAiPgogICA8cmRmOlJERiB4bWxuczpyZGY9Imh0dHA6Ly93d3cudzMub3JnLzE5OTkvMDIvMjItcmRmLXN5bnRheC1ucyMiPgogICAgICA8cmRmOkRlc2NyaXB0aW9uIHJkZjphYm91dD0iIgogICAgICAgICAgICB4bWxuczpleGlmPSJodHRwOi8vbnMuYWRvYmUuY29tL2V4aWYvMS4wLyIKICAgICAgICAgICAgeG1sbnM6dGlmZj0iaHR0cDovL25zLmFkb2JlLmNvbS90aWZmLzEuMC8iPgogICAgICAgICA8ZXhpZjpVc2VyQ29tbWVudD5TY3JlZW5zaG90PC9leGlmOlVzZXJDb21tZW50PgogICAgICAgICA8ZXhpZjpQaXhlbFhEaW1lbnNpb24+NjIyPC9leGlmOlBpeGVsWERpbWVuc2lvbj4KICAgICAgICAgPGV4aWY6UGl4ZWxZRGltZW5zaW9uPjE4MDwvZXhpZjpQaXhlbFlEaW1lbnNpb24+CiAgICAgICAgIDx0aWZmOlJlc29sdXRpb25Vbml0PjI8L3RpZmY6UmVzb2x1dGlvblVuaXQ+CiAgICAgICAgIDx0aWZmOlhSZXNvbHV0aW9uPjE0NC8xPC90aWZmOlhSZXNvbHV0aW9uPgogICAgICAgICA8dGlmZjpZUmVzb2x1dGlvbj4xNDQvMTwvdGlmZjpZUmVzb2x1dGlvbj4KICAgICAgICAgPHRpZmY6T3JpZW50YXRpb24+MTwvdGlmZjpPcmllbnRhdGlvbj4KICAgICAgPC9yZGY6RGVzY3JpcHRpb24+CiAgIDwvcmRmOlJERj4KPC94OnhtcG1ldGE+CpGnGzwAAEAASURBVHgB7Z0F2BxF0sc7OCEQLEiIIIcEdwnuEoJ7cPcDDudwP9yCQ3B3u0BwEoLb4e7uBIf9+td83fTOO7P+7u67+6/n2Z2etun5z9RMTXVVdbdHHh2ZMynUt3eflFxlCQEhIASEgBAQAkJACDQKgbEadWAdVwgIASEgBISAEBACQqA8BLrlLMVNRo4e5XYXX3RgnK20EBACEQLvvfee2+vXr1+Uq6QQEAIxAuKTGA2lhUA6AuXyiTRu6TgqVwgIASEgBISAEBACTYeABLemuyQakBAQAkJACAgBISAE0hGQ4JaOi3KFgBAQAkJACAgBIdB0CEhwa7pLogEJASEgBISAEBACQiAdAQlu6bgoVwgIASEgBISAEBACTYeABLemuyQakBAQAkJACAgBISAE0hGQ4JaOi3KFgBAQAkJACAgBIdB0CEhwa7pLogEJASEgBISAEBACQiAdAQlu6bgoVwgIASEgBISAEBACTYfAOE03Ig1ICLQgAixQ8uabb5oXXnjB/V588UUz3XTTmbnnntvMNddcZsCAAaZ79+6pZz5q1Cjz1ltvubJNN900tU5W5ogRI8wnn3xipppqKrPSSitlVVO+EGgYAn/88Ye58cYbzS+//JI6hm7dupnxxhvP9OzZ0/FJ3759U+spUwi0CwIS3NrlSus8G4bAV199Zbbddltz0003ZY5h4oknNrfddptZeumlO9S56KKLzIUXXujyhwwZYniRlUpbbbWV+eCDD8xyyy1XkeD2xhtvmL322ssMHTrU9OnTp9TDqp4QKBmBL7/80mywwQYl1+de3n333c2aa65ZcpvOrig+6WyE1X+MgKZKYzSUFgI1RuCVV15xWoKk0DbjjDMahDVP33//vVlmmWXMWWed5bMavr3jjjvMzDPP7ATKMWPGNHw8GoAQAIH77rvPrLXWWk5L1wyIiE+a4Sq01xgkuLXX9dbZ1hmB/fff33z22WfuqCuuuKJ58sknjZ82/e6778wXX3xhDjvssDCqXXfd1dx///1hv9rENttsY+hzjTXWKLsrPz1bdkM1EAIVIrDkkksaPnaSv+eee85prPng8bTuuuuad955x+82bCs+aRj0bXtgTZW27aXXiXc2Al9//bW55ZZb3GFmmWUWc/PNN3ewY5tiiinMoYce6vL33XdfV/fss882yy67bE2GFwuFNelQnQiBTkRgkkkmMbPOOmvqEbAHXWGFFcwqq6xiRo4c6erwkYM5gEgItBMCEtza6WrrXOuKwPvvvx+ON3DgwA5CWyi0iV122cV4we3RRx+Nizqk//zzT/P666+bZ5991ow11lhm4YUXNv379+9Qj4yPPvrI/P7774YX4qSTThrqfPjhhwajcAy+mbJFE/jqq6+66dppppnGfPzxxwbbI0/vvvuumXDCCZ2TwwQTTOCztRUCdUWgR48eZvPNNw+CG7ySJrj9/PPP5u2333Z8wr080UQTmdlnn93MOeecztEhOWjPJzjxcH/DMy+//LJ55plnzGSTTeaciPr165dnX/rbb7+VzCc//PCDef7554OTER9y/GKeTI5J+0IgEwE7bZNHjzw6MsdPJASEQDYCVpDJ8StEdio0ZxnP/axwlGO/EF155ZW5Sy65JHfnnXfmVbPTnaEfO2WUsw/8sO/7t44DOcqSRD51Vl555bwixkP+EUcckbNTuHn9WePvvH1/DLZHH310Xj/aEQKFECiFTz799NNwvw0aNKhQd67siSeeCPWT9zV97bjjjqE8vndJww933XVXh2N4Pjn22GNz119/fWp7+MIKeKGt9QxPrZfkE3gmOQ6/v9lmm+Ws81LoU4n2RKAUPomRkY2b5SCREOgMBNBk4QEH4Xyw/PLLGwyZ0Qak0cYbb+y0CauuumpascubZ555zGuvvdahHM/RJZZYwmnNOhTaDLQDaXTIIYeYe+65J68ITUAWoaUTCYFGIoBm2BNaNE+YJhBa55xzzvFZBps4K5SFffgE/rLCX8iLE8ccc4xZb7314qyQxikC7TbaOAgNdBZ5Pjn11FPNQQcdFKoxHrR6ni677DKnzfv11199lrZCoCgCEtyKQqQKQqByBLAxQ4CDeFmsvvrq7oHP9rTTTnNTlP5FUOpR7Fe6wVibKVOmgQYPHuyaIhyefvrppXaTV49p2nPPPdesv/76zpnBft3l9YWxOHkHH3xwXjvtCIF6IsD9TngaT/PNN59PmksvvTQ4Am255ZaGMDzETsRk4fPPPzdbbLFFqJvlvQ0PQZSTJrYcdnSehxH8+PiCZphhBscTMc/FfAJ/8mEEIazhxMB4iKvItCmOGBB9Dh8+3KX1JwRKQUA2bqWgpDpCoEIEeDhjSI1RtfcupSse/v4FwEsBgWmnnXYyCy64YMEjIaQR122ccf5iXezR2O/Vq5drN3r06ILt0wpPPvlks+eee7qi7bffPq2K8oRAXRBAMLNTmXnHQhtFPkGrzzzzzFCGZnjDDTd0+whJJ554oksjJJ133nlm3HHHDXWnnHJKg9OPNUVweQTCziKOsfPOO4diwvQgFK699touD34uJYYcNnZeENx6662doEcHxGFEM4g2boEFFnBCHefmP8DCgZUQAhkISHDLAEbZQqBWCPCQJkCntZ1xXqbe09T3z8Md4YsfoTtOOeWUIJj5On5LuRfafB4vpfnnn988/fTTecKhLy+2lbBWDCGV1wsB7uHVVlut6OEQzphmZEUFCGEIgY/wIHwIxUKb74ypTaZWX3rppUxzBerusMMOvknYYqLgyQtjfj9r27t371CEBm/eeed1YXn8FCs8i0bPn0OorIQQKIKABLciAKlYCNQCAV4meL/xw8YNzdhDDz3kXjaxlsxrFM4444zUwxIQN42mnXZal/3tt9+mFWfm8QLE404kBLoCAtirYSpAfEQ8pT0huOExyg/66aefnC0o05PYhKLRYjrSa72zzBOwQUt+GNEfy9N5yrIX9eV+i4CGJv26665zmreNNtrIFaFZw1TCOlZkeoP7PrQVAmkISHBLQ0V5QqATESDcANMv/LCBQUuAJs1PnSK8HX/88anhQ7LWaSQsSCUUG3dX0l5thEAtEeB+RPMcE/f21FNPbdBgpQlVcd2HH37Y8Y7npbislPT000+fWi1Ng5daMZE5bNgw58wQr5zC0nb8IGLTnXTSSc6UItFUu0IgEwEJbpnQqEAIVIcAdjZ88SOoFQqEy8vi9ttvdx6lTP9AaOMINJqkscceO5lV1b43uq6qEzUWAjVCAIP/RRZZpKLe0GylrXm60EILOY9rvLptqBDnDJB1gFrzV/fu3Z2JBPyMsEYQ7nilBZwUWFHl/PPPd+sZZ41L+UIgRqCyz/S4B6WFgBBIRYAvaTRnhx9+uCHgbTHyxs/Ue+qpp4pVV7kQEAL/jwDLx8VCG97PTJEyJfr4448bHHCwncODs96ExnAZq13neYBXKZ6n2LwhUHriGSESAqUiIMGtVKRUTwiUiUDsIXrFFVcUbR17usU2NUUbqoIQaHMEYjtRzA5sYGmDPWisQYs/nrJs3GoJ46hRo8zuu+9uVlppJRPzNkt64bWKd6pfexWBMtbE1XIc6qv1EJDg1nrXVGfUJAhsu+22YST77befW5M064WBR5wPZ0AjvtAbTbE90TfffNPo4ej4QiATAbtiQmYZBfBdHP+NJahqRVl88t577xmcjAhwnaZRox1LeHnCUUgkBEpBQIJbKSipjhCoAAEWisemxhNaAMIK7Lbbbubiiy82t956qxPWmOJhGseHGSAYbpaRtO+rHtvY/s0uBeS847DJEQmBZkPAe5MyLpx7sCcbM2aMIQbcY489ZoYMGeLuXz9u713q96vZZvFJHNbkhhtucJ6waNkQIlnl4cgjj3SBeDk2ceFiIa6a8aht6yMg54TWv8Y6wwYiQNDPOeaYwwlrDIMYUvyyiKCc//znP7OK65qPx5snYs/x22STTUwp076+nbZCoB4IECMN4cfHSFxjjTU6HBYBC+cH//HB0llMW1ZLhfgEhwlCgkDYu/JLEpq2Qw89NJmtfSGQiYA0bpnQqEAI1AYBbG5GjBjhHuDxuom+dx7cOCYwpZImtMUBOolXVYh69uxZqLhDWdx3spAXEus+xhoFDKtFQqCzECh0PxY6JnxB6A1sytKIlQtwDMBBwJMPycG+P67f+jqlbAvxCeue4jEeC3e+T/gKoQ77t3jpLl+urRDIQqAbK87HhSNHj3K7iy86MM5WWggIgQgB7Fegfv36RbmlJb/44gsXEJTYUEyJxhHWS+uhvrUIOEqsufHHH98Q6LfSmFb1HbWO1gwIVMMnlY4fD1PuV9Ynhb/4xU4KlfZbrF0xPmE8eLoSHHimmWZy4yr2IVbsmCpvDQTK5RNNlbbGdddZdCEEWKJq6aWX7jIjRlDLWrGhy5yEBto2CLCiQpqGq7MBKMYnrCfs1xTu7LGo/9ZGQFOlrX19dXZCQAgIASEgBIRACyEgwa2FLqZORQgIASEgBISAEGhtBCS4tfb11dkJASEgBISAEBACLYSABLcWupg6FSEgBISAEBACQqC1EZDg1trXV2cnBISAEBACQkAItBACEtxa6GLqVISAEBACQkAICIHWRkCCW2tfX52dEBACQkAICAEh0EIISHBroYupUxECQkAICAEhIARaG4Fujzw6Mm/lBH+6fXv38UlthYAQEAJCQAgIASEgBJoAAWncmuAiaAhCQAgIASEgBISAECgFAa1VWgpKqiMEEgiUu7Zcorl2hUBbICA+aYvLrJOsEoFy+UQatyoBV3MhIASEgBAQAkJACNQLAQlu9UJaxxECQkAICAEhIASEQJUISHCrEkA1FwJCQAgIASEgBIRAvRCQ4FYvpHUcISAEhIAQEAJCQAhUiYAEtyoBVHMhIASEgBAQAkJACNQLAQlu9UJaxxECQkAICAEhIASEQJUISHCrEkA1FwJCQAgIASEgBIRAvRCQ4FYvpHUcISAEhIAQEAJCQAhUiYAEtyoBVHMhIASEgBAQAkJACNQLgXEqOdC3335rbrvtttC0W7duZpNNNjFsi9Grr75qnnjiiVBtqaWWMv369Qv7SgiBVkGglfnk119/NS+//LJ54YUXzPPPP2/effddM9tss5m55prLzDHHHGbmmWc244yT/ngZNWqUeeutt9xl3nTTTcu63CNGjDCffPKJmWqqqcxKK61UVltVbk4EWo1PvvzyS3PXXXdlgj322GOb8cYbz0w55ZRmnnnmMZNOOmlmXRUIgVQEcgli0Xl+hcg+sFmYPu/3+OOPF2oSyjbbbLO8djfddFMoU0IIdBUErKCS41eIWpVPrLCWm3322fP4OPk8mH/++TPx2WabbULbP//8sxCEHcr69Onj2i633HIdykrJsIJfbvDgwaVUVZ0aINCOfHLjjTeG+zvJF2n7vBOfffbZGqBduy7EJ7XDspSeSuGTuJ+aTZXecMMN9p4sTGPGjDGXXXZZ4UoqFQItjEBX5xPGj1btpZdeCldp4oknNrPMMkvYJ/H000+bOeec0zz88MN5+Y3cOeigg8wKK6xgHnjggUYOQ8cuAYGuziclnGKowjtxySWXNG+88UbIa2RCfNJI9Es7ds0EtyuuuMJYibDgUf/73/8WLFehEGh1BLoyn/z4449mq622Cpdo9913N++//7757rvvDCYQ8P8rr7xiNthgA1fn+++/N5hCfP3116FNtQmrrTO77rqrWWONNcru6sUXX3RtJpxwwrLbqkF9EejKfBIjtd9++zmegC/8j4+eJ5980gwdOjRUhVcGDRpU9B0aGnRiQnzSieDWqOt0I5QKOv/ggw+c7drCCy+c2fqaa67JLFOBEGgHBLoyn9x///2GFwy09dZbm9NOO63DJZt11lnNVVddZdCu33HHHa786quvNjvttFOHupVkHHbYYZU0U5suhkBX5pMY6l69ehl4Io0WWGABs8oqqzg7N/jqtddec1o37ENFQqAQAlULbmuuuaa55ZZb3DHs3L7JEtwwQL3uuutcvUUXXdSMHj260Lhc2TfffOOmZPiaxxiZKZq+ffumOkHwosAoFPLODuzjCIExs7XJcVM33bt3d3X0JwTqiUAr8Mk777wTIGNqJ4vGGmsss++++wbB7Zlnnsmq6vKtnZt5/fXXjbXzMbTlGdK/f//UNh999JH5/fffzSSTTJJn1P3hhx+aP/74w/Ts2dMwdYtGg+fGMsss4+qh9UNjCH322Wfmvffec+ms54kr1F/dEWgFPikHtBlmmMFp2vi4gaytuHPsSfbx888/m7ffftvxyccff2wmmmii8E7D0SFJnk94b04wwQSOZ3Amghcnm2wyM/fcc7v3ZOxQiPBYKp/88MMPzinJOxlhKsFPjhbJK9FJ+7HBG+lynROsKji30EILOWNMDIezjI0vv/zyYLB56qmnhnSac4IV2HJbbLFFqGNPPaTtDZfDODpJ1k4g1Pniiy9yK6+8ctiP21988cXJptoXAmUjUIoxaeyc0Ap8cs899wSeWnHFFQti9tNPP+XOPPPM3JVXXplLOi7FzgnPPfdczj7wQ7+eV3mWUJYk75wAf8dkhTXXxxFHHJFjbL4fttZzL28/LrM2eHE3StcYgXbkk9g54cQTTyyK6Mknnxzuz+OPPz6v/qeffprbcccdQ3l875KGH6wHa14bdjyfHHvssbnrr78+tT0OPlbAC23PPffc1HocJ+aTo48+OrMejhZfffVV6FOJ0hAohU/inmpi42Yvlr22xqDe5oshjZg+gdZdd10z+eSTp1VxeW+++abTjF1yySWhzowzzhjShB5A8+a1fKEgSmBXM3z48Cjn7yQ2OsOGDfs7QykhUCcEujqfLL744gEpK8SZjTfe2Gm20Jglia/8XXbZxdWxH3bJ4rBPOASmiJLEs2SJJZZwWrNkGfu//fZbWrY55JBDDGOLyWvg4zyfRnsnai4EujqflIsmmjBPsZMP2i/edeecc44vNrwLrVAW9uGTVVddNS/EVii0iWOOOcast956cVZI33fffU677XkALV4W+TpW6WJwXvDEeNDqecLRAm0e4YJEnYdATQS3tdZaK4zQatBC2iesBixMm/CwL0R77rmnEwCpgyGyld4NwhwP6tgjdfvtt3dG0Wl9Yfxpv7qdKpeXCjf3zjvvHKqecsopIa2EEKgXAl2dTzDqj3mH6R2EMqZHttxyS/dBxJRnucSL2mrXDLzKNJAN1+G6YOrm9NNPL7c7V5+pWqtBMOuvv76xWgdn9M00HMSLxn69uh9TqaLmQqCr80k5aD700EPm/PPPD00Q1DxdeumlblqfffjLvwtxCPr888+NnZXyVc1ZZ50V0nHC26RSTvqXX34x2KpiTgDxbvS2qEOGDCnIJ/AnH0YQPMQ0Ke9mTJFQqHjzCfrMUpy4xvqrHoFY/Ua6kqlS2tmvcac+tRc0Z21NyAp0wQUXBNWqtUXL2Rsy7MdTpfFUjH3IhvZxIlb72psoFMVTpYzBzsGHMhJW8MsxzWoRcz+pc/Pg0U6ZCJSi2k5OlXKIVuCTa6+9NvCR56d4yzTN/vvvn7MP8FRU46lSYqrBmzHZl1Lon3hwMfkpoGQcNz9VyjiYekojnimU83wQ1QeBduSTeKrUOvHk7rzzzryftfXOYS5kPyrCfc59aZUR4aLwDvX3Over1WCFMp+wNpuhfRaf0C8mC0nivUsZv3322SevOItPbLiS0Ab+TtJTTz3lyhkvU7Si0hEohU/i3mqicbMX362cwBbD33hlBPKsnQsb94VQyDng7rvvdvX4O/TQQ0M6TqyzzjpBNRvXj+ugtUuqfYniHk/ZYFwpEgL1RoAVRqCuzCdosXAGOO644/J4ymPJFzdlTOlcdNFFPjt1S2iP5AoLRJS3LyJXH5zKJbTxoq6NQCvwCVeA+3+11VbL+8E/e+yxR3DWox73O5phTzgNsPoCKxTZDyUz7rjj+qKwRQOO0x2E80IW7bDDDh2KMFHw5LVyfj9r27t371CEBo8oEdaWNeRxDmj0rF2esYJdyFei9ghU7VXqh4R6G5sWCO/SRRZZxKXxbmEuHdpwww3dNuuPODeeuCnSpl0p9zeLjzfj2/jtTDPN5JN529jWxc/Z51XQjhDoZARahU94iBOjih/e24888oh58MEHne2p9zQDSswdmJbhZZVGWaEPpp12Wlcdb/RyyH7td/hoK6e96jYHAq3CJ8XQRPDae++9zeabb25YCssTghsBrPlBvPOwBYW32PLuYzrSf9hkvc+wQUt+GNHfdNNNx8ZRlr2oL/dbBEX4mOgQCHsbbbSRK8K0YfXVVzfWYSjTG9z3oW1tEKiZ4MaDHHsRopJj/M/XA679Xvji4b388ssXHHUsiFnvmoJ1KeTmYd4/6ewwzTTTpLZNc5tOrahMIdBJCLQin0wxxRQG+zF+dprSCXEIbN7pAOPqLMGNcBxpxLOjEvIaiEraqk3zINAqfIJtmvUKzQOW9xDnx0dGHI4jr9L/77DyCO9Cb4eWVqdQ3vTTT59anKbBS62YyOTdjpDo3+sUoxX0a5fjmHDSSSe5FUoSTbVbQwRqJrgxJtTbCG58BeBdSrw2GwbEDZfFpMsRnLw0X8m5xl8ulbRXGyHQmQh0RT5B84UAxjQIJgeFnIzwBiUmGx5yTJuicScmY1qMp1rzqje67szrp77rg0BX5JMkMmjM/OxTsqzYPpotvwpJXBf+g8dQhCAUwmNZVGv+wtTJ2pkbnCoQ1m6++WanBfTHx0kBx0AcLrbddlufrW2NEaip4MYyNN6+BImc6Q4faLfYNCnnNWDAgHATINmPP/74NT5ddScEGo9AV+QTpmq83QrTL4UENxBmWgV7VO8VygOdMD0iIVAqAl2RT0o9t2L1WEYuFtoOPvhgg/c1vOeFMWusXlBoK3aMSsvRhi9jZ9f4oV0j0PW9997rZtq8ffvhhx8uwa1SgEtoV9l8REbHU089tZvnphiHBL9QMCphvhCKUbw0CDYzWcTyOcRjs8E2ndo2q57yhUAzItAV+QTzA6/Nws7Gf5AVwjdeMYGpoWYhbyPbLOPRONIR6Ip8kn4m5efG/IUDD+867EG90EaPOAh5yrJx8+WVbJN8MmrUKMP6xCuttJKxQfBDl7y3Cbc1cuRIJ1hSgBYwtnUNlZWoCQI1FdwYkZ/i5ML961//coMk3kx8w2WNnECCnrhB8FBJEo4PTNmgkcMYOs3wMtlG+0Kg2RDoinyCEbWnxRZbLM/OxeezZekpGzHeYJ8DoSVgaZ9GkzfVwDY2LWhwo8en43dEoCvyScezKD8Hk4RChKC21157hSq1jJKQxScsE3fGGWe4ANdo1JLEu7hHjx4hG4WNqHMQqLng5oNnxsPNMkyO65BeYYUVzNprr+2yCaI7cOBA92WPAIfH6QknnOBWXvDt4heJz9NWCHQFBLoin+y2227ObtXjy1QodjYHHHCACw2ATQ6aAbTrNjaUr+aC9pby4RYadFKC9U09HXjggc5Wp9gL0tfXtjEIdEU+qQVS3puUvmwcNmdPxnrcrEjw2GOPGYLlwm+evHep369mm8UnhDXxxGwaphNo2RAiWeXhyCOPdIF4qYOjUizE+Xba1gaBmtq4MSQ8zAYNGhS8YPjaXnDBBUseLUtqMGeO4Pb0008bvuzT6KijjnJLfaSVKU8INDsCXZFPWJwaRwPiQvlVTNj34X6SmDO1euuttzpbmGRZI/YXWGABc+GFF7pDe691GVE34kqUfsyuyCeln112zXnnndcJP35pR+z9kgR/ocnGfhTivRmbGyXrl7pfiE8QFr0iBh7yfBT3jaYtKw5rXE/pyhGoSOPmVakcNs2BwKu3KSc+TSGX56RbMrHWENgwxvQ2NfTjCXd/pkvj9dIoi/uJ076dtkKg3gi0Ip/gdMA6wmeffbazZ03jUbxJCYOAjRsGzEmKcSn0bKBdz549k80L7sd9JyviOLXddtvlZVeyRFdeB9qpGoH4mrXa+yTtfEoBDL7AHAiToTSyKzK45aZwDvDkQ3Kw7zH1W1+nlG0hPmHd09tvv92tR5rsi2cBQh32b/PNN1+yWPs1RKAbyyjE/Y0cPcrtLr7owDi7YWkC+PJwZdHq/v37GwxWiz3sGzZYHbhtEMDeA4qDOjfy5BvFJzw+wIKvfVY8QMOeFvajkdgkj43HHmuiMs5evXq5eJPJOtqvDQLik+px5H5955133PqkxGXjVw/Tg2J8wnqpxGrEiYGg94xL7+bKrne5fNL0gltlMKiVEOhcBMpltM4djXoXAs2JgPikOa+LRtVcCJTLJxVNlTbXKWs0QkAICAEhIASEgBBoDwQkuLXHddZZCgEhIASEgBAQAi2AgAS3FriIOgUhIASEgBAQAkKgPRCQ4NYe11lnKQSEgBAQAkJACLQAAhLcWuAi6hSEgBAQAkJACAiB9kBAglt7XGedpRAQAkJACAgBIdACCEhwa4GLqFMQAkJACAgBISAE2gMBCW7tcZ11lkJACAgBISAEhEALINDtkUdH5q2c4M+pb+8+PqmtEBACQkAICAEhIASEQBMgII1bE1wEDUEICAEhIASEgBAQAqUgoCWvSkFJdYRAAoFylyhJNNeuEGgLBMQnbXGZdZJVIlAun0jjViXgai4EhIAQEAJCQAgIgXohIMGtXkjrOEJACAgBISAEhIAQqBIBCW5VAqjmQkAICAEhIASEgBCoFwIS3OqFtI4jBISAEBACQkAICIEqEZDgViWAai4EhIAQEAJCQAgIgXohIMGtXkjrOEJACAgBISAEhIAQqBIBCW5VAqjmQkAICAEhIASEgBCoFwIS3OqFtI4jBISAEBACQkAICIEqEZDgViWAai4EhIAQEAJCQAgIgXohME65B3rwwQfN+++/75qts846pnv37qld/Pzzz+b6668PZYsvvriZYYYZwn4ycfPNN5sffvjBZQ8ZMsR069YtWUX7QqDLICA+aeyl+uSTT8zzzz8ffhNOOKGZe+65zVxzzWXmmGMOM8UUU6QOkGcQzyJonnnmcfVTK6ZkvvXWW2bUqFGuZIUVVjDTTDNNSi1lxQiIT2I06pO+7777zEcffZR6MN678EqPHj3MtNNOW9b9n9qhMjsHgVyCWHSeXxZtuummLErvfvfff39WtdyIESNCPervt99+mXW/++67UHeWWWbJrKcCIdAsCLz77rs5flkkPslCpnPzf/vtt9zhhx8enif+WZXcnnHGGakDscJXaHvsscem1snKvPLKK0Pbhx56KKtaZv7XX3+d23PPPXM33HBDZp2uViA+ab4rNvvss4f7NMkXyX3ex6ecckoOvmoWakc+SWJf9lTp8ssvb6/tX/Too4/6ZIftPffck5d300035e3HO48//njYHTx4cEgrIQS6KgLik/pfuR9//NEst9xy5tBDD807eJ8+fQy/mHbbbTez1VZbmZ9++inObliatQpnnXVWY1+Sxr6YGjaOeh9YfFJvxMs73muvvWbsx4TZZ599ymvYSbXblU+ScJYtuC2zzDKhj4cffjikk4mkoMYN4BdSTdZ95JFHQhZTDCIh0NUREJ/U/wqef/75xj+TZpxxRnPLLbeY33//3Zl2YN6B+cbFF19sJp54Yje4YcOGmRNOOKFmA51tttnMrrvu6n5MM5VDX375pfnss89ck3YyExGflHOX1L7uK6+8YpI/TAyYTl111VXDAU899dQ806dQUOdEu/JJEuayBbfpp5/e8FCE7rrrLvdgTHaKgIagBm255ZZuy5+dPg3pOHHvvfeG3SWXXDKklRACXRUB8Un9r9yll14aDjp8+HCzxhprmLHHHjvkjT/++O559N///jfknXjiiebPP/8M+9Uk5ptvPmOnYN3vH//4RzVdtU1b8UljLzVa3uQPO9Bll13W3H777U7b5kd46623+qS2DUagbOcExrvaaquZM8880w39pZdecka/8XnEgpi1bTPWZsN8//33hgfm1ltvHVc1TG/4r+QVV1zRTDTRRHnl7DCdgSDIj69mO0dv+LpNq0t9DC/50u7Zs6f7kX7uueecofKAAQPM/PPPb8YbbzyqOrLzx+bVV181TNnyNU7/3MyFiHG8/fbb5vXXXzcff/yxGwvt5pxzzry+fR9+TFNNNZWZYIIJ3Phefvll88wzz5jJJpvMYdivXz85ZXjAWmArPjGOX+vFJ08//bS7a+CxQoLTwIEDDZqeBx54wD2X0Mb1798/84779ttv3fPjjTfecM+deeedN9Upa8yYMQaNANS3b9/Ayzg8fPXVVy4fHqcOH7G9evUyfKh++umnecbiH3zwgZudmGSSScykk07q2rXyn/ikvnxS6r001lhjmW233dZN39PG2rRnNuUehj94H/7xxx/OMYf3bJrmOeYT+AGCJ5544gmDU5F/jyYdH+GL2KmiEJ8wFt7pvJunm246Y231HI+PM05FIk/meTesIGn0Vsw5gfp2GjQYN55zzjnJLnLrr7++K7eaOVe2wQYbhPq//PJLXn2MeO3Ju5/9+s0rwyDyggsuyFlhKtTxddkefPDBOStA5bVhx9qzuPrHHHNMZvtzzz3XtbM3S84+6Dv0bwXMnBUqO/Rtb9Dcjjvu2KG+HxfHtprIDu38mDB4tt62qe2tfU7O3pgd2iqj+RAoZnTNiMUn9eUT67ke+MqaXxS8aaw3o3s2cI2++eabUDd2TjjyyCPdM8bzdry1NnI5+4IK7UjEzgkjR/7t4MUzzLe1msCQJo9nm31B5eX5ujwPujqJT/56tzXT+8QKRuF+K3Z/WW10qMt9aZUgeU2sOUKO97y/Z5Pb7bffPmc/WvLaXHbZZaH+F198kVt55ZXDftzemjXktcuSA2I+sYJjjv24H5+mvdUi5vXZLDul8Ek8VhPvkC5FcANsD8Zmm22W18Wvv/4ayvbYYw9XdtFFF4W8pLfV0UcfHcrsF3NeX5tsskko88dLbq2Lf96Dlw68kJQmkMXtjz/++IL9H3fccXnj4QZM9slN648X9221d3ltfZ2sm8+3pV4zefDknYR2AgKlMJr45K+XFvd2PfgkfpbAp+edd17OfsmHa1ZKIhbcPE9mbXffffe8LmPBLX7OxYJbGv/37t079TlktYJ5/XfFHfHJ3zzQLO+TcgS3d955J9ybtIvJ2oeGMniEe5s6yXt80KBBcbNcLLjFY0njs1h48+/QZD3PJ59//nmeEMk48IpN1o/7zBtYA3dK4ZN4eBUJbnRg1aAOEB6QMdlpzwCUl27ji//vf/87rp6z06OuPiDHX7AXXnhh6Idj2OnXUG6nGHMLLbRQKMeFPqbkBeYBzkVFGk/Tlp100kk5O53hNGzWwDn0mzw3a6AZyqztXt6XBP1vscUWoZx0TMkxnXXWWTk7fZxDA0lYlfhmt3Gk4qZKNyECpTKa+KR+fPLhhx+mPqgXXXRRFyKEZwh8XoiSght8iYacEARoG2688cbA47wQ7HRN6K4UwY02PLuYqTjggANCmCQ+Wv0Lhmdfq5D4pPneJ7GwVOg+syZKORvlIdyXaA09MRvl31lsrTODL3LbO++8M5RzX/Pu9RQLbpQhA1iHiBzaPfhp5513DsdEMRNTIT6BpzwPWc/yoABBox4rj5J9xv03Kl0qn/jxVSy4IYB5kDiop0MOOSTkE5/Nk5d8Y9CY5vR9xJo7LqC/KSi3Xi++m7C18+R52i9raxfKYiEJoSwma68SjknfafHl1lxzzVDHP+gRKn2/CHRoFpPEzezPhxd2TL4t5dY+MC5y6XhazbpedyhXRnMhUCqjiU/qyydoxfkC93yYtkUDgADGcyZJScGND9EkHXjggaF//3FKnVIEN54dyakj2hZ6IVHeVUl8kss12/skFtwQsOLfbbfd5oQcBB/u1Zh/soQvlB1pFM9oxXwSC24cw79jfR/MOCEn+GPH/FKIT1Cm+Dax7OH79deBvq0tnc9uim2pfOIHO5Y90YoIrxNPjz32mE86TxR27DxzcLtnf/XVV2fjHAQwZIQwzPdk57l90jkh4MwAbbfddqmOAhguWtVzaJMVUw73/Jgw+LVfvCFrm222CWmfiA2brSbNZeOijxetvbHNtddea8Ydd1xfPWyJOG2Zwu3jvJBFO+ywQ4ciorR78ufu97XtugiIT+rLJzj6EEPSvigMvG0/ADvcPHfccYdh1ReeURhDZ5HV1JkllliiQzHODZ7KjblmbX6cM5Jvr+1fCIhP6ssn/r7DMST+EUcVB0IbxDqEp6EuoXbi9yJtCONlhTBjbdh9d3nbuL5VdOSV+R1ixCWdDHEgiN/RVrDz1QtuZ5555lCOUwUOCjGxkpP9WHOORlNPPXVc1OXSFQtuPNQ8+WVe8OCwErHL5sLGhMeopyeffNIl4/htMePGQthSSy3lm3XYxg9QPEiSZCXrVA/P+AJ7r5a4Ld5eSUJww2MUAXTppZd2nq54qlpNmbFfFmbzzTc33Ax42UJ4sqaRtfUxaZ4teL54sl8cPqltF0dAfPKTe1DWk0/gL6tVM9a2zNhpEvdMIg5VMrg3XqV8MGbxG0tjpZHVEoRsa+oQ0qUkZpppplKqtV0d8Un9+aTYTcZ9vtFGG5k333zTeZfG9SeffHLDMpZ2hRiDMsSaKTgvbXiOSBK8t9ddd93QBIEpjbL4IX4vZ71Lk/3B855QrvCep/+9997bxaXD27VVYiRW7BuLxgthjK9bgvVBfks6GUg3js+G2y8g8+CE0FJZA12X5s8adYd0ofX+cLn3lCa4cXMVI2I7JQk36CwidAmCGl/tlRBxi9IoTYOXVk95XQsB8Ulj+QReJr4av3/+858u/MdRRx1l/vOf/7gbiWCjo0ePdmE5kndWFq9W8/Dnw03UEQHxSWP4hHs/Sbw3USRwTQoRYXLOPvtsFy7EB48uVD+tLOv9HofrSmuXlsesFfEb49k7a/pgrLmU+9GGGThm6pJavrT+mjkvW0IpYdQrrbSSq8XDj+k9QIOYniCIX0wA5bVuCD9Iv174SX4JM+XoqdBDMla/pglgtRaGrrvuOvcl4cftx4haF5Uv0zPWls1np27jgKCpFZTZcgiIT/66pJ3JJ3fffbdb6mqnnXZyz6Ksm4hnEx9eaAY8YQKRRmma8bR65eQVexmW01er1RWf/HVFO5NPkvfMIossYpI/NFXF7lNisfE+tw42eVOqvP+sLZkLQm3D6SQP12G/1u9D7iHMHxAoYw2cPzDxZ5mps3ZzPqtLbivWuHG28fQm04ZecENFmqa1YgkNr6FD2POU1M7FX6UEx8wiAvB56uw5a2vsmDeXb2PIGetQ4VaR8DefNRw08Zj82LRtbwTEJ53PJ3w0sWoBhO2ajSVZ8Kbj5YIdDBSbZhRspMJORUB80vl8UqsLiMaamTOI4LbwHgIgQe89+SD97GdNlfq6tdwiC9joEe5HgH8bmscpifx4kD2sQ4ab5q3lcevZV1UaN1ST3vj3iiuuCJL3KqusknoO8YLCNkRHqBPbqpEZC24AnEVeUKS82EoHWX2Umh+rlFG3HnHEEW4O3Qtt9MM8v6dS5+V9fW1bFwHxycx5S091Bp/EGv5LLrmk6Ivif//7X7jhCq2aECrVMcEHYDuS+KTz+aRW91WspbbhrAyarlho4zgvvvhiOBwzbLWmmE9432ICsfHGG5u99torHArNIfIIgiWOFJ4Yc1emqgQ3phK8kGZjqAQc4i+nkGkTGPd7w15fHy1cUi2LQSFSPMT0ZCw0uUz7hx0cni+evNeq36/11nvCZvXLjRPfMKV6wmT1p/zWQUB88ve17Cw+WW+99cJBMGVYa621TJbHJ/aw2Lt58s8wv9+IbTwtmzXuRoyrnscUn/yNdmfxyd9HqC5lw1cU7ACHRf+Op2KWA1DBTlIKs/iEfBtY11x99dXO5i6e0fPd4EThqdk+1vy4St1WJbhxEG+35g/I+mReOPN5fsv0aVLAig0JfT0uwtChQ/2uWWyxxcywYcPcvDSqT9b5w9jYh8047LDDCq41GDqqIoHQ6QmVK2FBmOfHzo5wKEOGDHFCpq9TqbGmb69tayEgPulcPiEMSPxFDX+ynvFWW23lvrYR5rB7scE9Xb5/sOPNGAt9jbrrevToEQ5N6IWrrrrKxGs+h8IWT4hPOpdPanX78E72ZOOOGtbdhlhLlNm35McQ3t21oEJ8YoPeh0PA98gMRLpACGYdcsbpKSmH+Pwus/UB3fy2lCWvfF22duH3EPTOnnSOwH2FyErEefXtAzSzOsFx6bPQj2CYSfLBbu1DIFnk9uOltNIq2Pn7cMy3337bVSFYpw/glzUeO22cFzgwDhxcbEz07/u18afShqW8JkKg3ICJ4pO/+bgz+YQ1SOnf81KhrQ1l0GE94jgAL+sKpxHrG/t+Wc7KUykBeGmbRgQdTY6b/a5O4pNcrtneJ3EA3krvL6usCDzgeSG55f3r8+A1T3EA3nhNX1/OFt7zbeFJT4X4hKD81rEjtPPtk1tr6pQafNsfoxHbcvmkao0bHiixJ2Xyi8mClkfxNCqauViTlVfR7uC2S4gRH9Q2LueYzFvb9QnjbJf2rsR+m6yQlZ+sx76vi3crErxdnzCtmgtaSLwbXI898dXvyffjtz5f2/ZAQHzy13UmuGdn8gnxo5599lnHj2nPDUaB8wJa80svvdTEHuyUxfwZpylLo9ibPcuLPe4nTsf9McuA41Y8W8GMQrtNm4pP/rorOptP4nuvkvTCCy/snBG9SVPcB3nEbcTTm1hv0OWXXx6mS2M+idNxH1npQnyCyRU28UR4SCPGhVYeuaFQtIq0ts2W1w3pMh7UyNGj3O7ii/4dHTwub1QamzGrwTJsEdpmmGGGPIPneo4LD1O7/qphVQViPfGLnRTqORYdqzEIvPfee+7AcaDIxowk/6jik3w8MK3AEYFAuQhFRHNvZl7lcYz9ENM7xLZM2v/mn13z74lPil+jrvw+wekAZyPeh3zEDBgwwAXkLX7W1dUoxifY1LFyAlEpcJpAQdTMsdvK5ZMuI7hVd5nVWgjUFoFyGa22R1dvQqBrICA+6RrXSaNsLALl8knVU6WNPV0dXQgIASEgBISAEBAC7YOABLf2udY6UyEgBISAEBACQqCLIyDBrYtfQA1fCAgBISAEhIAQaB8EJLi1z7XWmQoBISAEhIAQEAJdHAEJbl38Amr4QkAICAEhIASEQPsgIMGtfa61zlQICAEhIASEgBDo4ghIcOviF1DDFwJCQAgIASEgBNoHAQlu7XOtdaZCQAgIASEgBIRAF0egG2uTpp1D39590rKVJwSEgBAQAkJACAgBIdAgBKRxaxDwOqwQEAJCQAgIASEgBMpFQEtelYuY6gsBi0C5S5QINCHQjgiIT9rxquucy0WgXD6Rxq1chFVfCAgBISAEhIAQEAINQkCCW4OA12GFgBAQAkJACAgBIVAuAhLcykVM9YWAEBACQkAICAEh0CAEJLg1CHgdVggIASEgBISAEBAC5SIgwa1cxFRfCAgBISAEhIAQEAINQkCCW4OA12GFgBAQAkJACAgBIVAuAhLcykVM9YWAEBACQkAICAEh0CAEJLg1CHgdVggIASEgBISAEBAC5SIgwa1cxFRfCAgBISAEhIAQEAINQmCcWh33999/N8OHDzfPPvuseffdd80333xjpp9+ejPTTDOZZZZZxsw666yph/rhhx/MzTff7MrmmWceM9dcc6XWS8t86623zKhRo1zRCiusYKaZZhqXfv/9982DDz7o0oMGDTKTTTZZWvPUvCeffNK88sorrmyjjTYy44xTM4hSj6fM9kKgnfjk119/NS+//LJ54YUXzPPPP++eC7PNNpvj8TnmmMPMPPPMmfx14403mh9//NHxNLxdKoHv9ddfb9jOPffc7ldqW9VrHgRanU++/PJLc9ddd2UCPvbYY5vxxhvPTDnllIb34qSTTppZVwVtiEAuQSw6z69UsgyWO+GEE3JTTTUVi9Vn/jbbbLOcFeg6dGuFr9Dm2GOP7VBeKOPKK68MbR966KFQ9ayzzgr5zz33XMgvJfGvf/0rtP3+++9LaaI6bYgA93La/ZwFRbvxiRXWcrPPPnvgpbRnw/zzz5+JYZ8+fVzbFVdcMQvS1HyuiT/WUUcdlVqnWOaIESNygwcPLlZN5SUgID5Jf5/YD5Nwn/r7tdCW96dVipSAeP2qiE9qh3W5fFLVVClfDWi09tlnH/PZZ5/Z++4vmnHGGc1CCy1kJp54Yp9lLrvsMrP44osbtGEiIdBOCLQbn9xwww1Oq/bSSy+Fy8yzYJZZZgn7JJ5++mkz55xzmocffjgvv5E7Bx10kEHD98ADDzRyGG157Hbjk3IuMu/PJZdc0rzxxhvlNOu0uuKTToO2pI4rFtz+/PNPs/HGG7vpUY5kNW7mzDPPNGPGjDFvvvmmefzxx813331n7rnnHmO/vN1gPvjgA/dQ/Omnn0oaXLFKTLvsuuuu7jfttNMWq65yIVB3BNqNT5je3GqrrQLOu+++u/tY41nw6quvGvuN6kwRNthgA1fHarXNUkstZb7++uvQpppEjx49wjPBavTK7urFF190bSaccMKy26pB5Qi0G5/ESO23336OJzDR8T8+ejDbGTp0aKgKr6AogYcaTeKTxl6Big247HSkE8oYPkIbtmbYsyWJr9f777/fLLbYYgabtNdee81cddVVZuutt05WLXt/vvnmM2eccUbZ7dRACNQLgXbjE3idFwwEj5922mkdoMbelWcAH3l33HGHK7/66qvNTjvt1KFuuRmTTz65ngnlgtYE9duNT2LIe/XqlWkDvsACC5hVVlnF2bnBV7w/0bphHypqXwQqEtwwHLX2IwE1jIHThDZfAcHu9NNPN6uvvrrLOv74491Xebdu3XyVvO23335rrG2au0HRqs0777yme/fueXXY4cGPeh3q27evyerPVUj8wQSPPfaYee+994y1p3FTu+U4MSS6064Q6IBAO/LJO++8E3BgaieLxhprLLPvvvsGwe2ZZ57Jquryf/nlF8NXPk4OOCEtvPDCBiEtSWD+0UcfuWyeOxNMMIFL//bbb+bjjz926amnntqg4cGBiWcIH5eMB60fGkMI0w+eDVC5zxbXSH8lI9COfFIyOLbiDDPM4DRtfNxAzGalCW5otRHqEO54v+HQwLvzH//4R4d3Y8wn/v7m3se5EK0fx8S5Z4oppnDH9H/0WyqffPLJJwbNobXfMpNMMokTThmL50nfp7YVIJA0ryvFOeHee+8NhpX24ZzsInX/jz/+yNkv8NwxxxyTs/YjOfvgdPVi54Qjjzwyd/DBB4e+7emE9G677Zajj5hi54SRI/92qCjmnHDOOefkrM1N6NsfZ4899sjZqZ2Qb2/S+HBKC4GAQCnGpO3IJ9Y0IvBPMccCazKRs+YVOfjYvowCtiRi5wT7YRj69LzKlmePfYnkteO6+DrHHXdcKLMvo5DP8Xz/vu56660Xyn2e31obvNCPEuUhID5Jf5/EzgknnnhiUVBPPvnkcH9axUdefRzwbOSGUO7vW7+FT7j/Y4rfu9zfdro2tT3vxJ9//jk0Pffcc1PrcSzPJ/ZjKLfJJptk1mP89kMq9KlEzjlpwSulUkUaN+zWPC277LI+WXDLF+2FF15YsI4V2jLLmRJFo5Y29UIjK9Rlto0LmJrZcccdQ5Z3oOBL4tRTTw35SgiBahFoRz7BAckT548drPXUNtib8QyIiS/vXXbZJc7qkKaPGMe4Ak4Nq666qrHebWaiiSaKi1warUIa2ZdKh2w0DFmU1U9WfeWXh0B8ffU+SceOsDqeYicfTJRinqMO5YTj8g6D8AnOgmjA0mau1l133VDXH8NveSfS18UXX+yy0vjM14VP0GTDX7fccovPduNBC+gJmz40ccOGDfNZ2paJQP6TtMTGOBl4GjBggE/WZIsgxdQr6lhuBOI5eWK69cMPP/S7ZW8xjuZFAnEc4ugwLcuNefvtt+d5wZbduRoIgQQC7cgnGPWfcsopAQmmd3hpMG2z5ZZbuof166+/HspLTfznP/9xU5f2i9R5o+K5Do0ePdrceeedpXYT6jGNismGDWVk1lxzTXP00Uc7o2/SEOUci5/VZrg8/XUOAu3IJ+UgaUNdmfPPPz80iWOdwheecA7EpID33Keffmr+97//uQ8mylFMXHvttb5q3hYBD37ifUjsRd6H5513XqiDgIXQBw0ZMqQgnyBgeqGNjyr6YjyMC9MEryi55JJLMoXFcGAlMhGoWnDLCqybecQiBTyE+QLgQU8QwrXXXtsceOCBoRVz8JXSSSedFAynMY7G6BMtHpoAvHWybuxKj6d27Y1A/EJqJz6x0ysdeIkXBw9rPE7RCGBXc8ABB5T0IcbLiZBDtIFwSjr77LPDzfXUU0+FdKmJ2267zdnY7b333i4A+LjjjltqU9WrMQLtyiceRrRPCE3xD+UFs0t4Xy+99NK+qtl+++2DPTnOfl5IQsuF9pqgvZ4Ico3Thyds17IIBQnvQ/igZ8+eZrvttjN77rlnqI6HaykU86I1b3J90Y5x4T3OBxKEoFjNu9x10sZ/FU2VYtDrqZZu84suuqhZYoklfNdhO3DgwJBGE1cp+ZuK8CSrrbZah25WXnll94VCfCmREKgWgXbmk/XXX98JZcSfIq7bE088kQcnL2trg+Z+mFAU8jLfeeed89qyg3OCpy+++MInS9rynInbl9RIlToNgXbmE0C96KKL3K8YwJgb2CD1oRohsOArHIJiLVyoYBOxCQBarzSytqjOazVZFofTYYWjUshrwqm7//77O8ENfvNmEgiXeI9rRaJS0MyuU5HGDS9MT/Hctc+rdMsXQhoxbeEp6+bz5VlbvMq8QMaNlOaBSp6mRbIQVH65CLQ7n/Tu3dtgz4IXHMIVS9vxFR8/3MF0m222Mdddd10qvGCYZlcTLwFU7jMBT3VR8yDQ7nxS7EqgaEC4g49iT2qUJgsuuKCxjjXOYxOlBqYDV1xxhTnssMPMWmutFZaB5BhZduBpHqrUj69LqXaefBD59zUe4Njfwato2tEiYpokoQ10q6OKBLc42C1q3lrR9NNPn9pVmpCVWrFAZmxXQziALIpv1qw6yhcCpSAgPvkbJcIKYD9mveNcgG4MpmMja+vp/XflKEX4gFpTodBFtT6W+iuOQLvzCbafCFzxDyUDdmUY+xMGB8EH06EkIYxdfvnlTmOGUEe81E033dQcfvjhYRo12Sa5zwdWGsXTrmnlaXm0efTRR/N4GzMJ7OTQwjNGwoIxzSuqHIGKBDeMjT2VI7jtsMMO7gYjflMc78n31ZmSeHwTYnCcRXG9rDrKFwKlINBufMLXNAb/e+21lwuwWwgjTCKwcfEfSvfdd58zZE626QzbszQNXvK42q8fAu3GJ0lkWfZtkUUWyfthx4mCoZjSAg22XcfUxTf0/eIAsNxyyznh7aabbvLZmds0gTCzcgkFaNSJy4jN+BZbbBEcEnxTIjsQXy5pPuHLtS2OQEWCG0aMnoYPHx6CVvq8tC1z5HiqoD7Fk8vPeafV7Yw8bibv0eIDa6YdR2uppqGivEoQaDc+YSk77FrwKv33v/9dFDKmetZZZ51Qj2eDqP0QaDc+qdUVJgyOXzmIdxshOwg+TSBeG0PSHHLIIaZ///7hcIUUFqFSjRKEHUHDhqbtq6++ctpEtIB+GhUtnI0JV6OjtV83FQluRC7HkB/ClZjpj2IUG1UOHjzY9OvXr1iTmpYjKGLbBnHDZ62XisuySAjUAoF24xPO138cMRXC1E8xildMyJqyKdZHZ5RnPR8641jt3me78UmtrjfLy3nCBo4p13jamTJCcXgq1U7N1y9lm+QTpm233XZb5/xnA/e6LpglcmCMAAAFfElEQVRJQ6OIIGkD5Ydu8ewWVYZARYIbh0Jr5onAuXHsJp/PFin/ggsuMHbFhJDNwtONIC+4IWzG4QT8WHDHLuVl4+trKwSKIdBufEJ4DU/Y22RN1WCbYyPGG2zdIDTisQec76PeW28qgUYA+yJRfRBoNz6pBao+thp9pWnTiOV26KGHhkMRo61WlMUnCGZ4ifMuTQu436NHjzCEWodICh23QaJiwQ334/imwK6FBXG5WAg/eMAgfbNeITFhPKEuZW3ARhD2AN4gmmjuxJT5/PPPXWw3xpoWIqQR49QxWweBduMTYjf5DySuIlOhyy+/vIvZds011zjv0SOOOMKF/SE2myc+/Gpta+P7LmfLmoqeiB+JJxwvQFHnItBufFILNLET88Ta4ayigFaNqdK7777b2bnFUR/8ut6+TTXbLD7ZcMMNQ7fEaWQ2jqC8CJZvv/22iUP7EK9VVCECFtA8KmWt0riBnQLF0r+k36677hrWKPV9xGum0VcaWSPG0L/V3oUq8VqlNrp0yC+0Vqn1Lk1dp9Sfg53qCceyX92hTyWEQIxAKWswxvXbiU/sYtU5azAd+MjzVtoWfrNTPjFULm2dFlz7Quud+v6sF11oH69Val9mIT9eq5R1H7No6NChHcZto9ZnVVd+EQTEJ+nvk3LXKk2D2dqOdVhz1/OE39pQIuF9Z+3Lclawc12V8t5l/W/fj43HmDeEQnzCuuK+XdaW9VNtiKC8Ptt5p1w+qVjjZi+II4yRiarM/HoWYQ9HHb/eaFzPq1zJi9NxnTg9/vjjh91KPM4IL4AHW3J9NzplDp7VFTw1gwbAj0Xbro1AO/EJTgeskoA5Arzv7d7iK4jmm2cGNm5psRP9s8Bv47bJdPxMSJb5/fhZUahPItPHMwS0j0MJ+f607RwE2olPPIKl3L++brydbLLJnL02S0slCZ4jwDX85VdAwETIr4AQ80CcTvaTtV+IT9CysTxlGt/jnMA1xnmCEEGiyhDohpQbNx05epTbXXzRv1criMsLpQmE+fHHHzvPFupxYYjNVumNWehYtSizUq4LSwIDEOSwM8OR1GK86qN5EPCeyZU42bQbn/CIAS8MpaecckpnzxYH0G2eq/r3SJhu4lnGOHv16lV3L/i/R9K1U+KT+lw/hDKmInEIwHYMh496UCE+wUaUKA04KuEcyDsWXhJ1RKBcPqmp4NZxOMoRAq2JQLmM1poo6KyEQGEExCeF8VGpEACBcvmk6qlSwS4EhIAQEAJCQAgIASFQHwQkuNUHZx1FCAgBISAEhIAQEAJVIyDBrWoI1YEQEAJCQAgIASEgBOqDgAS3+uCsowgBISAEhIAQEAJCoGoEJLhVDaE6EAJCQAgIASEgBIRAfRCQ4FYfnHUUISAEhIAQEAJCQAhUjYAEt6ohVAdCQAgIASEgBISAEKgPAhLc6oOzjiIEhIAQEAJCQAgIgaoR6MbapGm99O3dJy1beUJACAgBISAESkJgw1NTXy8ltVUlIdBuCFyzR7eSTlkat5JgUiUhIASEgBAQAkJACDQegXEmn27hvFF89eHjbr+SNRjzOtKOEGhhBMpdoqSFodCpCYECCLxboExFQkAIxAiUKndJ4xajprQQEAJCQAgIASEgBJoYgXGaeGwamhAQAkJACLQQAo+e3L+FzkanIgSqQ2CxvSrTSEvjVh3uai0EhIAQEAJCQAgIgbohIMGtblDrQEJACAgBISAEhIAQqA4BCW7V4afWQkAICAEhIASEgBCoGwIS3OoGtQ4kBISAEBACQkAICIHqEJDgVh1+ai0EhIAQEAJCQAgIgbohIMGtblDrQEJACAgBISAEhIAQqA4BCW7V4afWQkAICAEhIASEgBCoGwL/B5hYVbsHS9EAAAAAAElFTkSuQmCC;" vertex="1" parent="1">
          <mxGeometry x="69.95" y="50" width="380.11" height="110" as="geometry" />
        </mxCell>
        <mxCell id="l2Xmlrt4_wKqlZV3ljpw-2" value="Client" style="swimlane;fontStyle=1;align=center;verticalAlign=top;childLayout=stackLayout;horizontal=1;startSize=26;horizontalStack=0;resizeParent=1;resizeParentMax=0;resizeLast=0;collapsible=1;marginBottom=0;whiteSpace=wrap;html=1;" vertex="1" parent="1">
          <mxGeometry x="170" y="210" width="160" height="120" as="geometry" />
        </mxCell>
        <mxCell id="l2Xmlrt4_wKqlZV3ljpw-3" value="- factory : ClothesFactory&lt;br&gt;- men : Men" style="text;strokeColor=none;fillColor=none;align=left;verticalAlign=top;spacingLeft=4;spacingRight=4;overflow=hidden;rotatable=0;points=[[0,0.5],[1,0.5]];portConstraint=eastwest;whiteSpace=wrap;html=1;" vertex="1" parent="l2Xmlrt4_wKqlZV3ljpw-2">
          <mxGeometry y="26" width="160" height="34" as="geometry" />
        </mxCell>
        <mxCell id="l2Xmlrt4_wKqlZV3ljpw-4" value="" style="line;strokeWidth=1;fillColor=none;align=left;verticalAlign=middle;spacingTop=-1;spacingLeft=3;spacingRight=3;rotatable=0;labelPosition=right;points=[];portConstraint=eastwest;strokeColor=inherit;" vertex="1" parent="l2Xmlrt4_wKqlZV3ljpw-2">
          <mxGeometry y="60" width="160" height="10" as="geometry" />
        </mxCell>
        <mxCell id="l2Xmlrt4_wKqlZV3ljpw-5" value="+ Client(f: ClothesFactory)&lt;br&gt;+ CreateType()&lt;br&gt;+ CreateClothes()" style="text;strokeColor=none;fillColor=none;align=left;verticalAlign=top;spacingLeft=4;spacingRight=4;overflow=hidden;rotatable=0;points=[[0,0.5],[1,0.5]];portConstraint=eastwest;whiteSpace=wrap;html=1;" vertex="1" parent="l2Xmlrt4_wKqlZV3ljpw-2">
          <mxGeometry y="70" width="160" height="50" as="geometry" />
        </mxCell>
        <mxCell id="l2Xmlrt4_wKqlZV3ljpw-6" value="&lt;p style=&quot;margin:0px;margin-top:4px;text-align:center;&quot;&gt;&lt;i&gt;&amp;lt;&amp;lt;Interface&amp;gt;&amp;gt;&lt;/i&gt;&lt;br&gt;&lt;b&gt;ClothesFactory&lt;/b&gt;&lt;/p&gt;&lt;hr size=&quot;1&quot;&gt;&lt;p style=&quot;text-align: center; margin: 0px 0px 0px 4px;&quot;&gt;....&lt;/p&gt;&lt;hr style=&quot;text-align: center;&quot; size=&quot;1&quot;&gt;&lt;p style=&quot;margin:0px;margin-left:4px;&quot;&gt;+ createMen() : Men&lt;/p&gt;&lt;p style=&quot;margin:0px;margin-left:4px;&quot;&gt;+ createWoman() : Woman&lt;/p&gt;&lt;p style=&quot;margin:0px;margin-left:4px;&quot;&gt;+ createChild() : Child&lt;/p&gt;" style="verticalAlign=top;align=left;overflow=fill;fontSize=12;fontFamily=Helvetica;html=1;whiteSpace=wrap;" vertex="1" parent="1">
          <mxGeometry x="520" y="200" width="190" height="140" as="geometry" />
        </mxCell>
        <mxCell id="l2Xmlrt4_wKqlZV3ljpw-7" value="&lt;p style=&quot;margin:0px;margin-top:4px;text-align:center;&quot;&gt;&lt;b&gt;Shirt&lt;/b&gt;&lt;/p&gt;&lt;hr size=&quot;1&quot;&gt;&lt;p style=&quot;margin:0px;margin-left:4px;&quot;&gt;...&lt;/p&gt;&lt;hr size=&quot;1&quot;&gt;&lt;p style=&quot;border-color: var(--border-color); margin: 0px 0px 0px 4px;&quot;&gt;+ createMen() : Men&lt;/p&gt;&lt;p style=&quot;border-color: var(--border-color); margin: 0px 0px 0px 4px;&quot;&gt;+ createWoman() : Woman&lt;/p&gt;&lt;p style=&quot;border-color: var(--border-color); margin: 0px 0px 0px 4px;&quot;&gt;+ createChild() : Child&lt;/p&gt;" style="verticalAlign=top;align=left;overflow=fill;fontSize=12;fontFamily=Helvetica;html=1;whiteSpace=wrap;" vertex="1" parent="1">
          <mxGeometry x="410" y="397" width="160" height="120" as="geometry" />
        </mxCell>
        <mxCell id="l2Xmlrt4_wKqlZV3ljpw-8" value="&lt;p style=&quot;margin:0px;margin-top:4px;text-align:center;&quot;&gt;&lt;b&gt;Pants&lt;/b&gt;&lt;/p&gt;&lt;hr size=&quot;1&quot;&gt;&lt;p style=&quot;margin:0px;margin-left:4px;&quot;&gt;...&lt;/p&gt;&lt;hr size=&quot;1&quot;&gt;&lt;p style=&quot;border-color: var(--border-color); margin: 0px 0px 0px 4px;&quot;&gt;+ createMen() : Men&lt;/p&gt;&lt;p style=&quot;border-color: var(--border-color); margin: 0px 0px 0px 4px;&quot;&gt;+ createWoman() : Woman&lt;/p&gt;&lt;p style=&quot;border-color: var(--border-color); margin: 0px 0px 0px 4px;&quot;&gt;+ createChild() : Child&lt;/p&gt;" style="verticalAlign=top;align=left;overflow=fill;fontSize=12;fontFamily=Helvetica;html=1;whiteSpace=wrap;" vertex="1" parent="1">
          <mxGeometry x="650" y="397" width="160" height="120" as="geometry" />
        </mxCell>
        <mxCell id="l2Xmlrt4_wKqlZV3ljpw-9" value="&lt;div style=&quot;text-align: center;&quot;&gt;&lt;b&gt;MalePants&lt;/b&gt;&lt;/div&gt;&lt;hr size=&quot;1&quot;&gt;&lt;p style=&quot;margin:0px;margin-left:4px;&quot;&gt;...&lt;/p&gt;&lt;hr size=&quot;1&quot;&gt;&lt;p style=&quot;border-color: var(--border-color); margin: 0px 0px 0px 4px;&quot;&gt;+ getSize()&lt;br style=&quot;border-color: var(--border-color);&quot;&gt;&lt;/p&gt;&lt;p style=&quot;border-color: var(--border-color); margin: 0px 0px 0px 4px;&quot;&gt;+ getPrice()&lt;br style=&quot;border-color: var(--border-color);&quot;&gt;&lt;/p&gt;&lt;p style=&quot;border-color: var(--border-color); margin: 0px 0px 0px 4px;&quot;&gt;+ getColor()&lt;/p&gt;" style="verticalAlign=top;align=left;overflow=fill;fontSize=12;fontFamily=Helvetica;html=1;whiteSpace=wrap;" vertex="1" parent="1">
          <mxGeometry x="270" y="619" width="160" height="101" as="geometry" />
        </mxCell>
        <mxCell id="l2Xmlrt4_wKqlZV3ljpw-10" value="&lt;p style=&quot;margin:0px;margin-top:4px;text-align:center;&quot;&gt;&lt;b&gt;MaleShirt&lt;/b&gt;&lt;/p&gt;&lt;hr size=&quot;1&quot;&gt;&lt;p style=&quot;margin:0px;margin-left:4px;&quot;&gt;...&lt;/p&gt;&lt;hr size=&quot;1&quot;&gt;&lt;p style=&quot;border-color: var(--border-color); margin: 0px 0px 0px 4px;&quot;&gt;+ getSize()&lt;br&gt;&lt;/p&gt;&lt;p style=&quot;border-color: var(--border-color); margin: 0px 0px 0px 4px;&quot;&gt;+ getPrice()&lt;br&gt;&lt;/p&gt;&lt;p style=&quot;border-color: var(--border-color); margin: 0px 0px 0px 4px;&quot;&gt;+ getColor()&lt;/p&gt;" style="verticalAlign=top;align=left;overflow=fill;fontSize=12;fontFamily=Helvetica;html=1;whiteSpace=wrap;" vertex="1" parent="1">
          <mxGeometry x="90" y="619" width="160" height="101" as="geometry" />
        </mxCell>
        <mxCell id="l2Xmlrt4_wKqlZV3ljpw-11" value="&lt;div style=&quot;text-align: center;&quot;&gt;&lt;b style=&quot;background-color: initial; border-color: var(--border-color);&quot;&gt;&lt;b style=&quot;background-color: initial;&quot;&gt;FemalePants&lt;/b&gt;&lt;/b&gt;&lt;/div&gt;&lt;hr size=&quot;1&quot;&gt;&lt;p style=&quot;margin:0px;margin-left:4px;&quot;&gt;...&lt;/p&gt;&lt;hr size=&quot;1&quot;&gt;&lt;p style=&quot;border-color: var(--border-color); margin: 0px 0px 0px 4px;&quot;&gt;+ getSize()&lt;br style=&quot;border-color: var(--border-color);&quot;&gt;&lt;/p&gt;&lt;p style=&quot;border-color: var(--border-color); margin: 0px 0px 0px 4px;&quot;&gt;+ getPrice()&lt;br style=&quot;border-color: var(--border-color);&quot;&gt;&lt;/p&gt;&lt;p style=&quot;border-color: var(--border-color); margin: 0px 0px 0px 4px;&quot;&gt;+ getColor()&lt;/p&gt;" style="verticalAlign=top;align=left;overflow=fill;fontSize=12;fontFamily=Helvetica;html=1;whiteSpace=wrap;" vertex="1" parent="1">
          <mxGeometry x="620" y="619" width="160" height="101" as="geometry" />
        </mxCell>
        <mxCell id="l2Xmlrt4_wKqlZV3ljpw-12" value="&lt;p style=&quot;margin:0px;margin-top:4px;text-align:center;&quot;&gt;&lt;b&gt;FemaleShirt&lt;/b&gt;&lt;/p&gt;&lt;hr size=&quot;1&quot;&gt;&lt;p style=&quot;margin:0px;margin-left:4px;&quot;&gt;...&lt;/p&gt;&lt;hr size=&quot;1&quot;&gt;&lt;p style=&quot;border-color: var(--border-color); margin: 0px 0px 0px 4px;&quot;&gt;+ getSize()&lt;br style=&quot;border-color: var(--border-color);&quot;&gt;&lt;/p&gt;&lt;p style=&quot;border-color: var(--border-color); margin: 0px 0px 0px 4px;&quot;&gt;+ getPrice()&lt;br style=&quot;border-color: var(--border-color);&quot;&gt;&lt;/p&gt;&lt;p style=&quot;border-color: var(--border-color); margin: 0px 0px 0px 4px;&quot;&gt;+ getColor()&lt;/p&gt;" style="verticalAlign=top;align=left;overflow=fill;fontSize=12;fontFamily=Helvetica;html=1;whiteSpace=wrap;" vertex="1" parent="1">
          <mxGeometry x="440" y="619" width="160" height="101" as="geometry" />
        </mxCell>
        <mxCell id="l2Xmlrt4_wKqlZV3ljpw-13" value="&lt;div style=&quot;text-align: center;&quot;&gt;&lt;b&gt;ChildPants&lt;/b&gt;&lt;/div&gt;&lt;hr size=&quot;1&quot;&gt;&lt;p style=&quot;margin:0px;margin-left:4px;&quot;&gt;...&lt;/p&gt;&lt;hr size=&quot;1&quot;&gt;&lt;p style=&quot;border-color: var(--border-color); margin: 0px 0px 0px 4px;&quot;&gt;+ getSize()&lt;br style=&quot;border-color: var(--border-color);&quot;&gt;&lt;/p&gt;&lt;p style=&quot;border-color: var(--border-color); margin: 0px 0px 0px 4px;&quot;&gt;+ getPrice()&lt;br style=&quot;border-color: var(--border-color);&quot;&gt;&lt;/p&gt;&lt;p style=&quot;border-color: var(--border-color); margin: 0px 0px 0px 4px;&quot;&gt;+ getColor()&lt;/p&gt;" style="verticalAlign=top;align=left;overflow=fill;fontSize=12;fontFamily=Helvetica;html=1;whiteSpace=wrap;" vertex="1" parent="1">
          <mxGeometry x="980" y="619" width="160" height="101" as="geometry" />
        </mxCell>
        <mxCell id="l2Xmlrt4_wKqlZV3ljpw-14" value="&lt;p style=&quot;margin:0px;margin-top:4px;text-align:center;&quot;&gt;&lt;b&gt;ChildShirt&lt;/b&gt;&lt;/p&gt;&lt;hr size=&quot;1&quot;&gt;&lt;p style=&quot;margin:0px;margin-left:4px;&quot;&gt;...&lt;/p&gt;&lt;hr size=&quot;1&quot;&gt;&lt;p style=&quot;border-color: var(--border-color); margin: 0px 0px 0px 4px;&quot;&gt;+ getSize()&lt;br style=&quot;border-color: var(--border-color);&quot;&gt;&lt;/p&gt;&lt;p style=&quot;border-color: var(--border-color); margin: 0px 0px 0px 4px;&quot;&gt;+ getPrice()&lt;br style=&quot;border-color: var(--border-color);&quot;&gt;&lt;/p&gt;&lt;p style=&quot;border-color: var(--border-color); margin: 0px 0px 0px 4px;&quot;&gt;+ getColor()&lt;/p&gt;" style="verticalAlign=top;align=left;overflow=fill;fontSize=12;fontFamily=Helvetica;html=1;whiteSpace=wrap;" vertex="1" parent="1">
          <mxGeometry x="800" y="619" width="160" height="101" as="geometry" />
        </mxCell>
        <mxCell id="l2Xmlrt4_wKqlZV3ljpw-15" value="&lt;p style=&quot;margin:0px;margin-top:4px;text-align:center;&quot;&gt;&lt;b&gt;Male&lt;/b&gt;&lt;/p&gt;&lt;hr size=&quot;1&quot;&gt;&lt;p style=&quot;margin:0px;margin-left:4px;&quot;&gt;...&lt;/p&gt;&lt;hr size=&quot;1&quot;&gt;&lt;p style=&quot;border-color: var(--border-color); margin: 0px 0px 0px 4px;&quot;&gt;+ getSize()&lt;br style=&quot;border-color: var(--border-color);&quot;&gt;&lt;/p&gt;&lt;p style=&quot;border-color: var(--border-color); margin: 0px 0px 0px 4px;&quot;&gt;+ getPrice()&lt;br style=&quot;border-color: var(--border-color);&quot;&gt;&lt;/p&gt;&lt;p style=&quot;border-color: var(--border-color); margin: 0px 0px 0px 4px;&quot;&gt;+ getColor()&lt;/p&gt;" style="verticalAlign=top;align=left;overflow=fill;fontSize=12;fontFamily=Helvetica;html=1;whiteSpace=wrap;" vertex="1" parent="1">
          <mxGeometry x="180" y="817" width="160" height="103" as="geometry" />
        </mxCell>
        <mxCell id="l2Xmlrt4_wKqlZV3ljpw-16" value="&lt;p style=&quot;margin:0px;margin-top:4px;text-align:center;&quot;&gt;&lt;b&gt;Female&lt;/b&gt;&lt;/p&gt;&lt;hr size=&quot;1&quot;&gt;&lt;p style=&quot;margin:0px;margin-left:4px;&quot;&gt;...&lt;/p&gt;&lt;hr size=&quot;1&quot;&gt;&lt;p style=&quot;border-color: var(--border-color); margin: 0px 0px 0px 4px;&quot;&gt;+ getSize()&lt;br style=&quot;border-color: var(--border-color);&quot;&gt;&lt;/p&gt;&lt;p style=&quot;border-color: var(--border-color); margin: 0px 0px 0px 4px;&quot;&gt;+ getPrice()&lt;br style=&quot;border-color: var(--border-color);&quot;&gt;&lt;/p&gt;&lt;p style=&quot;border-color: var(--border-color); margin: 0px 0px 0px 4px;&quot;&gt;+ getColor()&lt;/p&gt;" style="verticalAlign=top;align=left;overflow=fill;fontSize=12;fontFamily=Helvetica;html=1;whiteSpace=wrap;" vertex="1" parent="1">
          <mxGeometry x="530" y="817" width="160" height="103" as="geometry" />
        </mxCell>
        <mxCell id="l2Xmlrt4_wKqlZV3ljpw-17" value="&lt;p style=&quot;margin:0px;margin-top:4px;text-align:center;&quot;&gt;&lt;b&gt;Child&lt;/b&gt;&lt;/p&gt;&lt;hr size=&quot;1&quot;&gt;&lt;p style=&quot;margin:0px;margin-left:4px;&quot;&gt;....&lt;/p&gt;&lt;hr size=&quot;1&quot;&gt;&lt;p style=&quot;border-color: var(--border-color); margin: 0px 0px 0px 4px;&quot;&gt;+ getSize()&lt;br style=&quot;border-color: var(--border-color);&quot;&gt;&lt;/p&gt;&lt;p style=&quot;border-color: var(--border-color); margin: 0px 0px 0px 4px;&quot;&gt;+ getPrice()&lt;br style=&quot;border-color: var(--border-color);&quot;&gt;&lt;/p&gt;&lt;p style=&quot;border-color: var(--border-color); margin: 0px 0px 0px 4px;&quot;&gt;+ getColor()&lt;/p&gt;" style="verticalAlign=top;align=left;overflow=fill;fontSize=12;fontFamily=Helvetica;html=1;whiteSpace=wrap;" vertex="1" parent="1">
          <mxGeometry x="880" y="817" width="160" height="103" as="geometry" />
        </mxCell>
        <mxCell id="l2Xmlrt4_wKqlZV3ljpw-18" value="" style="endArrow=open;html=1;endSize=12;startArrow=none;startSize=14;startFill=0;edgeStyle=orthogonalEdgeStyle;align=left;verticalAlign=bottom;rounded=0;entryX=0;entryY=0.5;entryDx=0;entryDy=0;exitX=1;exitY=0.5;exitDx=0;exitDy=0;" edge="1" parent="1" source="l2Xmlrt4_wKqlZV3ljpw-2" target="l2Xmlrt4_wKqlZV3ljpw-6">
          <mxGeometry x="-1" y="3" relative="1" as="geometry">
            <mxPoint x="250" y="297" as="sourcePoint" />
            <mxPoint x="410" y="297" as="targetPoint" />
          </mxGeometry>
        </mxCell>
        <mxCell id="l2Xmlrt4_wKqlZV3ljpw-19" value="" style="group" vertex="1" connectable="0" parent="1">
          <mxGeometry x="490" y="377" width="240" height="20" as="geometry" />
        </mxCell>
        <mxCell id="l2Xmlrt4_wKqlZV3ljpw-20" value="" style="endArrow=block;dashed=1;endFill=0;endSize=12;html=1;rounded=0;entryX=0.5;entryY=1;entryDx=0;entryDy=0;" edge="1" parent="l2Xmlrt4_wKqlZV3ljpw-19" target="l2Xmlrt4_wKqlZV3ljpw-6">
          <mxGeometry width="160" relative="1" as="geometry">
            <mxPoint x="125" as="sourcePoint" />
            <mxPoint x="130" y="-40" as="targetPoint" />
          </mxGeometry>
        </mxCell>
        <mxCell id="l2Xmlrt4_wKqlZV3ljpw-21" value="" style="endArrow=none;dashed=1;html=1;rounded=0;" edge="1" parent="l2Xmlrt4_wKqlZV3ljpw-19">
          <mxGeometry width="50" height="50" relative="1" as="geometry">
            <mxPoint as="sourcePoint" />
            <mxPoint x="240" as="targetPoint" />
          </mxGeometry>
        </mxCell>
        <mxCell id="l2Xmlrt4_wKqlZV3ljpw-22" value="" style="endArrow=none;dashed=1;html=1;rounded=0;exitX=0.5;exitY=0;exitDx=0;exitDy=0;" edge="1" parent="l2Xmlrt4_wKqlZV3ljpw-19" source="l2Xmlrt4_wKqlZV3ljpw-7">
          <mxGeometry width="50" height="50" relative="1" as="geometry">
            <mxPoint x="80" y="10" as="sourcePoint" />
            <mxPoint as="targetPoint" />
          </mxGeometry>
        </mxCell>
        <mxCell id="l2Xmlrt4_wKqlZV3ljpw-23" value="" style="endArrow=none;dashed=1;html=1;rounded=0;exitX=0.5;exitY=0;exitDx=0;exitDy=0;" edge="1" parent="l2Xmlrt4_wKqlZV3ljpw-19">
          <mxGeometry width="50" height="50" relative="1" as="geometry">
            <mxPoint x="239.74" y="20" as="sourcePoint" />
            <mxPoint x="239.74" as="targetPoint" />
          </mxGeometry>
        </mxCell>
        <mxCell id="l2Xmlrt4_wKqlZV3ljpw-24" value="" style="group" vertex="1" connectable="0" parent="1">
          <mxGeometry x="170" y="777" width="180" as="geometry" />
        </mxCell>
        <mxCell id="l2Xmlrt4_wKqlZV3ljpw-25" value="" style="endArrow=block;endFill=0;endSize=12;html=1;rounded=0;entryX=0.5;entryY=0;entryDx=0;entryDy=0;" edge="1" parent="l2Xmlrt4_wKqlZV3ljpw-24" target="l2Xmlrt4_wKqlZV3ljpw-15">
          <mxGeometry width="160" relative="1" as="geometry">
            <mxPoint x="90" as="sourcePoint" />
            <mxPoint x="230" y="-150" as="targetPoint" />
          </mxGeometry>
        </mxCell>
        <mxCell id="l2Xmlrt4_wKqlZV3ljpw-26" value="" style="endArrow=none;html=1;rounded=0;exitX=0.5;exitY=1;exitDx=0;exitDy=0;" edge="1" parent="l2Xmlrt4_wKqlZV3ljpw-24" source="l2Xmlrt4_wKqlZV3ljpw-10">
          <mxGeometry width="50" height="50" relative="1" as="geometry">
            <mxPoint x="90" y="-40" as="sourcePoint" />
            <mxPoint as="targetPoint" />
          </mxGeometry>
        </mxCell>
        <mxCell id="l2Xmlrt4_wKqlZV3ljpw-27" value="" style="endArrow=none;html=1;rounded=0;exitX=0.5;exitY=1;exitDx=0;exitDy=0;" edge="1" parent="l2Xmlrt4_wKqlZV3ljpw-24" source="l2Xmlrt4_wKqlZV3ljpw-9">
          <mxGeometry width="50" height="50" relative="1" as="geometry">
            <mxPoint x="180" y="-31" as="sourcePoint" />
            <mxPoint x="180" as="targetPoint" />
          </mxGeometry>
        </mxCell>
        <mxCell id="l2Xmlrt4_wKqlZV3ljpw-28" value="" style="endArrow=none;html=1;rounded=0;" edge="1" parent="l2Xmlrt4_wKqlZV3ljpw-24">
          <mxGeometry width="50" height="50" relative="1" as="geometry">
            <mxPoint as="sourcePoint" />
            <mxPoint x="180" as="targetPoint" />
          </mxGeometry>
        </mxCell>
        <mxCell id="l2Xmlrt4_wKqlZV3ljpw-29" value="" style="endArrow=block;endFill=0;endSize=12;html=1;rounded=0;entryX=0.5;entryY=0;entryDx=0;entryDy=0;" edge="1" parent="1">
          <mxGeometry width="160" relative="1" as="geometry">
            <mxPoint x="609.35" y="777" as="sourcePoint" />
            <mxPoint x="609.35" y="817" as="targetPoint" />
          </mxGeometry>
        </mxCell>
        <mxCell id="l2Xmlrt4_wKqlZV3ljpw-30" value="" style="endArrow=none;html=1;rounded=0;exitX=0.5;exitY=1;exitDx=0;exitDy=0;" edge="1" parent="1" source="l2Xmlrt4_wKqlZV3ljpw-12">
          <mxGeometry width="50" height="50" relative="1" as="geometry">
            <mxPoint x="519.76" y="737" as="sourcePoint" />
            <mxPoint x="520" y="777" as="targetPoint" />
          </mxGeometry>
        </mxCell>
        <mxCell id="l2Xmlrt4_wKqlZV3ljpw-31" value="" style="endArrow=none;html=1;rounded=0;exitX=0.5;exitY=1;exitDx=0;exitDy=0;" edge="1" parent="1" source="l2Xmlrt4_wKqlZV3ljpw-11">
          <mxGeometry width="50" height="50" relative="1" as="geometry">
            <mxPoint x="699.76" y="747" as="sourcePoint" />
            <mxPoint x="699.76" y="777" as="targetPoint" />
          </mxGeometry>
        </mxCell>
        <mxCell id="l2Xmlrt4_wKqlZV3ljpw-32" value="" style="endArrow=none;html=1;rounded=0;" edge="1" parent="1">
          <mxGeometry width="50" height="50" relative="1" as="geometry">
            <mxPoint x="519.35" y="777" as="sourcePoint" />
            <mxPoint x="699.35" y="777" as="targetPoint" />
          </mxGeometry>
        </mxCell>
        <mxCell id="l2Xmlrt4_wKqlZV3ljpw-33" value="" style="endArrow=block;endFill=0;endSize=12;html=1;rounded=0;entryX=0.5;entryY=0;entryDx=0;entryDy=0;" edge="1" parent="1">
          <mxGeometry width="160" relative="1" as="geometry">
            <mxPoint x="970" y="777" as="sourcePoint" />
            <mxPoint x="970" y="817" as="targetPoint" />
          </mxGeometry>
        </mxCell>
        <mxCell id="l2Xmlrt4_wKqlZV3ljpw-34" value="" style="endArrow=none;html=1;rounded=0;exitX=0.5;exitY=1;exitDx=0;exitDy=0;" edge="1" parent="1" source="l2Xmlrt4_wKqlZV3ljpw-14">
          <mxGeometry width="50" height="50" relative="1" as="geometry">
            <mxPoint x="880" y="747" as="sourcePoint" />
            <mxPoint x="880" y="777" as="targetPoint" />
          </mxGeometry>
        </mxCell>
        <mxCell id="l2Xmlrt4_wKqlZV3ljpw-35" value="" style="endArrow=none;html=1;rounded=0;exitX=0.5;exitY=1;exitDx=0;exitDy=0;" edge="1" parent="1" source="l2Xmlrt4_wKqlZV3ljpw-13">
          <mxGeometry width="50" height="50" relative="1" as="geometry">
            <mxPoint x="1060" y="737" as="sourcePoint" />
            <mxPoint x="1059.76" y="777" as="targetPoint" />
          </mxGeometry>
        </mxCell>
        <mxCell id="l2Xmlrt4_wKqlZV3ljpw-36" value="" style="endArrow=none;html=1;rounded=0;" edge="1" parent="1">
          <mxGeometry width="50" height="50" relative="1" as="geometry">
            <mxPoint x="880" y="777" as="sourcePoint" />
            <mxPoint x="1060" y="777" as="targetPoint" />
          </mxGeometry>
        </mxCell>
        <mxCell id="l2Xmlrt4_wKqlZV3ljpw-37" value="" style="endArrow=none;dashed=1;html=1;rounded=0;entryX=0.5;entryY=1;entryDx=0;entryDy=0;exitX=0.31;exitY=0.018;exitDx=0;exitDy=0;exitPerimeter=0;startArrow=open;startFill=0;fillColor=#0050ef;strokeColor=#001DBC;strokeWidth=2;" edge="1" parent="1" source="l2Xmlrt4_wKqlZV3ljpw-12" target="l2Xmlrt4_wKqlZV3ljpw-7">
          <mxGeometry width="50" height="50" relative="1" as="geometry">
            <mxPoint x="540" y="699" as="sourcePoint" />
            <mxPoint x="490" y="539" as="targetPoint" />
          </mxGeometry>
        </mxCell>
        <mxCell id="l2Xmlrt4_wKqlZV3ljpw-38" value="" style="endArrow=none;dashed=1;html=1;rounded=0;startArrow=open;startFill=0;fillColor=#0050ef;strokeColor=#001DBC;strokeWidth=2;" edge="1" parent="1" source="l2Xmlrt4_wKqlZV3ljpw-10">
          <mxGeometry width="50" height="50" relative="1" as="geometry">
            <mxPoint x="170" y="619" as="sourcePoint" />
            <mxPoint x="170" y="569" as="targetPoint" />
          </mxGeometry>
        </mxCell>
        <mxCell id="l2Xmlrt4_wKqlZV3ljpw-39" value="" style="endArrow=none;dashed=1;html=1;rounded=0;startArrow=open;startFill=0;fillColor=#0050ef;strokeColor=#001DBC;strokeWidth=2;" edge="1" parent="1">
          <mxGeometry width="50" height="50" relative="1" as="geometry">
            <mxPoint x="880" y="619" as="sourcePoint" />
            <mxPoint x="880" y="569" as="targetPoint" />
          </mxGeometry>
        </mxCell>
        <mxCell id="l2Xmlrt4_wKqlZV3ljpw-40" value="" style="endArrow=none;dashed=1;html=1;rounded=0;fillColor=#0050ef;strokeColor=#001DBC;strokeWidth=2;" edge="1" parent="1">
          <mxGeometry width="50" height="50" relative="1" as="geometry">
            <mxPoint x="170" y="569" as="sourcePoint" />
            <mxPoint x="880" y="569" as="targetPoint" />
          </mxGeometry>
        </mxCell>
        <mxCell id="l2Xmlrt4_wKqlZV3ljpw-41" value="" style="endArrow=none;dashed=1;html=1;rounded=0;entryX=0.5;entryY=1;entryDx=0;entryDy=0;exitX=0.31;exitY=0.018;exitDx=0;exitDy=0;exitPerimeter=0;startArrow=open;startFill=0;fillColor=#e51400;strokeColor=#B20000;strokeWidth=2;" edge="1" parent="1" target="l2Xmlrt4_wKqlZV3ljpw-8">
          <mxGeometry width="50" height="50" relative="1" as="geometry">
            <mxPoint x="730" y="619" as="sourcePoint" />
            <mxPoint x="730" y="537" as="targetPoint" />
          </mxGeometry>
        </mxCell>
        <mxCell id="l2Xmlrt4_wKqlZV3ljpw-42" value="" style="endArrow=none;dashed=1;html=1;rounded=0;startArrow=open;startFill=0;fillColor=#e51400;strokeColor=#B20000;strokeWidth=2;" edge="1" parent="1">
          <mxGeometry width="50" height="50" relative="1" as="geometry">
            <mxPoint x="349.29" y="619" as="sourcePoint" />
            <mxPoint x="349.29" y="579" as="targetPoint" />
            <Array as="points">
              <mxPoint x="349.29" y="591" />
            </Array>
          </mxGeometry>
        </mxCell>
        <mxCell id="l2Xmlrt4_wKqlZV3ljpw-43" value="" style="endArrow=none;dashed=1;html=1;rounded=0;startArrow=open;startFill=0;fillColor=#e51400;strokeColor=#B20000;strokeWidth=2;" edge="1" parent="1">
          <mxGeometry width="50" height="50" relative="1" as="geometry">
            <mxPoint x="1059.64" y="619" as="sourcePoint" />
            <mxPoint x="1060" y="579" as="targetPoint" />
          </mxGeometry>
        </mxCell>
        <mxCell id="l2Xmlrt4_wKqlZV3ljpw-44" value="" style="endArrow=none;dashed=1;html=1;rounded=0;fillColor=#e51400;strokeColor=#B20000;strokeWidth=2;" edge="1" parent="1">
          <mxGeometry width="50" height="50" relative="1" as="geometry">
            <mxPoint x="350" y="579" as="sourcePoint" />
            <mxPoint x="1060" y="579" as="targetPoint" />
          </mxGeometry>
        </mxCell>
      </root>
    </mxGraphModel>
  </diagram>
</mxfile>
